PathFileType	4	(X/Y/Z)	 s03c0303.trc
DataRate	CameraRate	NumFrames	NumMarkers	Units	OrigDataRate	OrigDataStartFrame	OrigNumFrames
200	200	4	50	mm	200	501	2000
Frame#	Time	racr			lacr			c7			jug			rlel			rdr			llel			ldr			s2			lic			ric			lasi			rasi			rpsi			lpsi			rgt			lgt			rth1			rth2			rth3			rth4			rlfc			rmfc			rsh1			rsh2			rsh3			rsh4			rlmal			rcal			rtoe			rmt5			rmt1			lth1			lth2			lth4			lth3			llfc			lmfc			lsh1			lsh2			lsh3			lsh4			llmal			lcal			ltoe			lmt1			lmt5			SBIKE			LBIKE			RBIKE			
		X1	Y1	Z1	X2	Y2	Z2	X3	Y3	Z3	X4	Y4	Z4	X5	Y5	Z5	X6	Y6	Z6	X7	Y7	Z7	X8	Y8	Z8	X9	Y9	Z9	X10	Y10	Z10	X11	Y11	Z11	X12	Y12	Z12	X13	Y13	Z13	X14	Y14	Z14	X15	Y15	Z15	X16	Y16	Z16	X17	Y17	Z17	X18	Y18	Z18	X19	Y19	Z19	X20	Y20	Z20	X21	Y21	Z21	X22	Y22	Z22	X23	Y23	Z23	X24	Y24	Z24	X25	Y25	Z25	X26	Y26	Z26	X27	Y27	Z27	X28	Y28	Z28	X29	Y29	Z29	X30	Y30	Z30	X31	Y31	Z31	X32	Y32	Z32	X33	Y33	Z33	X34	Y34	Z34	X35	Y35	Z35	X36	Y36	Z36	X37	Y37	Z37	X38	Y38	Z38	X39	Y39	Z39	X40	Y40	Z40	X41	Y41	Z41	X42	Y42	Z42	X43	Y43	Z43	X44	Y44	Z44	X45	Y45	Z45	X46	Y46	Z46	X47	Y47	Z47	X48	Y48	Z48	X49	Y49	Z49	X50	Y50	Z50	
501	2.5050	744.922781	1485.651911	-95.575350	673.694126	1517.336519	-424.087671	652.957043	1608.150127	-242.536661	678.622197	1436.794124	-259.224368	677.248284	1214.916400	6.801045	779.863488	943.249597	-40.982002	653.741392	1230.529635	-474.154243	781.288018	952.781012	-417.768129	148.634228	1303.122567	-188.007291	295.240999	1358.057533	-382.108834	341.573474	1303.574780	-25.542469	329.322406	1279.096909	-350.858097	362.706485	1238.602256	-81.146326	186.314777	1342.149806	-137.619662	179.164666	1355.453317	-220.492307	251.913878	1181.199309	-24.465748	262.595106	1261.395923	-410.841374	270.271336	1032.501472	-13.380429	310.259426	952.810361	-15.733925	308.351814	867.696257	-27.895451	345.283969	961.581342	-24.140535	316.148842	744.406889	-64.480188	323.766957	727.817488	-182.196174	257.261551	591.279248	-33.187241	255.782647	502.333268	-43.020615	210.027436	426.865655	-43.248885	285.776324	495.453473	-67.093349	163.694247	309.357845	-61.262027	97.882156	319.928456	-96.390436	312.902067	95.165480	-115.914673	220.079427	164.961634	-39.265372	248.299256	166.722770	-152.044999	361.945576	1155.794781	-455.661355	438.717118	1118.861405	-471.581467	463.481033	1144.311470	-460.851477	487.803300	1045.094223	-483.538757	594.936832	956.121183	-481.632890	609.975747	936.971218	-350.769966	470.548672	833.616776	-485.476743	429.213580	763.228500	-459.642690	351.193790	718.687966	-447.394141	453.743752	743.720824	-437.490581	258.758987	637.383918	-419.405818	181.761857	633.108696	-370.165647	433.385513	455.186336	-349.673112	353.530500	506.737974	-310.343859	326.179676	498.953158	-427.991284	-266.810958	928.557074	-247.575521	-7.790225	84.674826	-436.923001	-13.741085	81.340250	-36.566795	
502	2.5100	746.467097	1484.821151	-98.332472	672.853192	1519.039517	-425.493078	653.881291	1608.553308	-243.963260	678.381743	1437.285488	-261.677684	677.882687	1215.033788	5.837433	780.022572	943.073801	-40.884764	650.867024	1231.763487	-473.188249	780.900414	954.180191	-417.505018	147.537031	1307.028295	-188.059827	293.498302	1362.108026	-381.739324	341.587551	1306.406988	-25.136378	327.674093	1282.257159	-350.856694	362.111574	1241.433440	-80.634557	186.713134	1345.702645	-137.092067	179.048097	1359.372245	-219.631737	251.860530	1184.464473	-23.931676	261.431456	1264.973596	-410.182772	270.634990	1035.351522	-13.096483	310.818714	955.777886	-15.435772	309.103755	870.567639	-27.341294	345.805375	964.539949	-23.996703	316.512520	746.998657	-63.425888	324.342591	730.973332	-181.534802	255.608000	594.535728	-32.372727	252.557785	505.634232	-42.559839	205.570699	430.896542	-42.734221	281.681846	498.386573	-66.506859	157.312393	313.972415	-61.094667	91.479946	325.059431	-96.412580	303.969824	97.884126	-115.779739	211.741298	168.536206	-39.265487	239.857654	169.795890	-152.270524	360.472006	1157.540465	-454.402518	437.398992	1120.224456	-469.572729	461.960221	1145.935821	-459.471393	486.368601	1046.404715	-481.135922	593.881324	957.907031	-478.773368	608.510004	940.306797	-347.368101	471.513626	833.190664	-483.446395	431.231831	762.053783	-458.300238	353.905951	716.080929	-446.587252	456.002641	742.795355	-435.930725	262.712028	632.569461	-419.336932	185.264339	626.097446	-370.267803	442.050863	455.531772	-349.653973	359.339682	504.250713	-312.518953	333.546553	496.186546	-428.043720	-266.767078	928.633772	-247.580088	-7.796582	84.750320	-436.898298	-13.734138	81.393465	-36.534242	
503	2.5150	747.747905	1484.092545	-101.131325	671.906442	1520.508784	-426.722447	654.743863	1608.839438	-245.332856	678.179360	1437.657919	-264.175309	678.356138	1215.175020	4.828066	780.167829	942.963965	-40.716378	647.857290	1232.766799	-472.593025	780.233037	955.426094	-416.991356	149.732908	1309.263057	-189.574019	291.796323	1365.969964	-381.635524	341.505199	1309.081880	-24.782117	325.960791	1285.056877	-350.694852	360.534286	1244.762794	-78.792529	186.976274	1349.232444	-136.620878	178.947169	1363.298031	-218.901826	251.564644	1187.624286	-23.459966	260.376358	1268.241054	-409.644646	271.249639	1038.083989	-12.926603	311.833979	958.676778	-15.353358	310.462371	873.494849	-26.926748	346.663371	967.628751	-24.010361	317.762223	749.490071	-62.375343	325.316422	733.971206	-180.658234	254.338858	597.815110	-31.458404	250.032345	509.204182	-41.511862	201.002691	435.219184	-42.385135	278.896165	501.474267	-65.708442	150.543617	318.996186	-61.028899	84.565949	330.077243	-96.672348	295.231486	101.444424	-115.638316	203.414345	172.521742	-39.364222	231.595584	173.367143	-152.438374	359.061962	1158.988970	-453.260222	435.873900	1121.322472	-467.965719	460.511660	1147.121638	-458.191884	484.663645	1047.484433	-479.202669	592.549411	959.079195	-475.787309	606.774028	941.517360	-344.350237	472.227606	832.134716	-481.463496	433.046469	760.164922	-456.796302	356.433401	712.861622	-445.768108	458.011120	741.273878	-434.380375	266.425648	627.047709	-419.095592	188.597340	618.402662	-370.388848	450.253644	455.561876	-349.563437	366.103764	501.858557	-312.501653	340.695620	492.842902	-428.100000	-266.767072	928.698796	-247.448514	-7.785244	84.832700	-436.895576	-13.727223	81.466332	-36.538624	
504	2.5200	748.842693	1483.223130	-103.899385	671.008962	1521.825168	-428.014749	655.554358	1609.100771	-246.755979	677.879976	1437.917892	-266.457182	678.575638	1215.290287	3.769223	780.179145	942.879003	-40.454962	644.970342	1233.512587	-472.360116	779.569561	956.614622	-416.654262	149.491689	1313.245526	-190.558396	290.168126	1369.533505	-381.490930	341.378972	1311.722379	-24.558413	324.253115	1287.666808	-350.829866	359.993311	1247.395054	-78.480572	187.112691	1352.668262	-136.108907	178.938863	1367.046003	-218.236897	251.214960	1190.832676	-22.908006	259.362537	1271.165366	-409.140742	272.159770	1040.581359	-12.800688	313.328060	961.518701	-15.350699	312.484094	876.335601	-26.613298	348.010073	970.682537	-24.062499	319.886054	751.913461	-61.317836	326.882759	736.649732	-179.459607	253.469708	601.029997	-30.563863	247.082408	512.735417	-41.048117	196.372610	439.858742	-42.082114	275.408512	504.416423	-65.646805	143.450611	324.316886	-61.197980	77.127671	335.133625	-97.019401	286.874415	105.773173	-115.523434	195.115098	177.129071	-39.527857	223.543474	177.632781	-152.670381	357.618091	1159.999732	-452.141872	434.330542	1122.013200	-466.368654	459.017040	1147.664254	-456.888045	482.844904	1047.827244	-476.939897	590.914332	959.452638	-472.796390	604.716958	941.932245	-341.363999	472.638676	830.430954	-479.423887	434.543578	757.536853	-455.210866	358.697207	709.073523	-444.938263	459.688637	739.121443	-432.839788	269.783415	620.972666	-418.958785	191.718812	609.992275	-370.460922	458.158379	454.984777	-349.397647	373.207741	499.266701	-310.888860	347.544537	489.072741	-428.181128	-266.775868	928.779456	-247.259513	-7.815209	84.816782	-436.915064	-13.744116	81.455396	-36.512226	
